<mxfile host="app.diagrams.net" modified="2023-11-24T07:04:28.972Z" agent="Mozilla/5.0 (X11; Linux x86_64) AppleWebKit/537.36 (KHTML, like Gecko) Chrome/115.0.0.0 Safari/537.36" version="22.1.3" etag="FSHMYv5o-EAwswf8GuPp" type="github">
  <diagram name="第 1 页" id="LPUyibxMNxkQzUmJ3HnH">
    <mxGraphModel>
      <root>
        <mxCell id="0" />
        <mxCell id="1" parent="0" />
      </root>
    </mxGraphModel>
  </diagram>
</mxfile>
